<svg width="320" height="86" viewBox="0 0 320 86" fill="none" xmlns="http://www.w3.org/2000/svg">
<path d="M27.8473 13.1818H32.6839L39.1612 28.9915H39.4169L45.8942 13.1818H50.7308V35H46.9382V20.0107H46.7358L40.706 34.9361H37.8722L31.8423 19.9787H31.6399V35H27.8473V13.1818ZM65.294 28.1179V18.6364H69.1506V35H65.4112V32.0916H65.2408C64.8714 33.0078 64.2642 33.7571 63.419 34.3395C62.581 34.9219 61.5476 35.2131 60.3189 35.2131C59.2464 35.2131 58.2983 34.9751 57.4744 34.4993C56.6577 34.0163 56.0185 33.3168 55.5568 32.4006C55.0952 31.4773 54.8643 30.3622 54.8643 29.0554V18.6364H58.7209V28.4588C58.7209 29.4957 59.005 30.3196 59.5732 30.9304C60.1413 31.5412 60.8871 31.8466 61.8104 31.8466C62.3786 31.8466 62.929 31.7081 63.4616 31.4311C63.9943 31.1541 64.4311 30.7422 64.772 30.1953C65.12 29.6413 65.294 28.9489 65.294 28.1179ZM86.0495 22.9616L82.5339 23.3452C82.4345 22.9901 82.2605 22.6562 82.0119 22.3438C81.7704 22.0312 81.4437 21.7791 81.0318 21.5874C80.6199 21.3956 80.1156 21.2997 79.519 21.2997C78.7164 21.2997 78.0417 21.4737 77.4949 21.8217C76.9551 22.1697 76.6887 22.6207 76.6958 23.1747C76.6887 23.6506 76.8627 24.0376 77.2179 24.3359C77.5801 24.6342 78.1767 24.8793 79.0076 25.071L81.7988 25.6676C83.3471 26.0014 84.4977 26.5305 85.2505 27.255C86.0105 27.9794 86.394 28.9276 86.4011 30.0994C86.394 31.1293 86.0922 32.0384 85.4956 32.8267C84.9061 33.608 84.0858 34.2187 83.0346 34.6591C81.9835 35.0994 80.7761 35.3196 79.4125 35.3196C77.4096 35.3196 75.7974 34.9006 74.5758 34.0625C73.3542 33.2173 72.6262 32.0419 72.3919 30.5362L76.1525 30.174C76.323 30.9126 76.6852 31.4702 77.2392 31.8466C77.7931 32.223 78.514 32.4112 79.4018 32.4112C80.318 32.4112 81.0531 32.223 81.6071 31.8466C82.1681 31.4702 82.4487 31.005 82.4487 30.451C82.4487 29.9822 82.2676 29.5952 81.9054 29.2898C81.5502 28.9844 80.9963 28.75 80.2434 28.5866L77.4522 28.0007C75.8826 27.674 74.7214 27.1236 73.9686 26.3494C73.2157 25.5682 72.8429 24.581 72.85 23.3878C72.8429 22.3793 73.1163 21.5057 73.6703 20.767C74.2314 20.0213 75.0091 19.446 76.0034 19.0412C77.0048 18.6293 78.1589 18.4233 79.4657 18.4233C81.3833 18.4233 82.8926 18.8317 83.9934 19.6484C85.1014 20.4652 85.7868 21.5696 86.0495 22.9616ZM96.8255 35.3196C95.1848 35.3196 93.7679 34.9787 92.5748 34.2969C91.3887 33.608 90.476 32.6349 89.8368 31.3778C89.1976 30.1136 88.878 28.6257 88.878 26.9141C88.878 25.2308 89.1976 23.7536 89.8368 22.4822C90.4831 21.2038 91.3851 20.2095 92.5428 19.4993C93.7005 18.782 95.0605 18.4233 96.623 18.4233C97.6316 18.4233 98.5833 18.5866 99.4782 18.9134C100.38 19.233 101.176 19.7301 101.865 20.4048C102.561 21.0795 103.107 21.9389 103.505 22.983C103.903 24.0199 104.102 25.2557 104.102 26.6903V27.8729H90.6891V25.2734H100.405C100.398 24.5348 100.238 23.8778 99.9256 23.3026C99.6131 22.7202 99.1763 22.2621 98.6152 21.9283C98.0613 21.5945 97.415 21.4276 96.6763 21.4276C95.888 21.4276 95.1955 21.6193 94.5989 22.0028C94.0023 22.3793 93.5371 22.8764 93.2033 23.4943C92.8766 24.1051 92.7097 24.7763 92.7026 25.5078V27.777C92.7026 28.7287 92.8766 29.5455 93.2246 30.2273C93.5726 30.902 94.0591 31.4205 94.6841 31.7827C95.3091 32.1378 96.0407 32.3153 96.8787 32.3153C97.4398 32.3153 97.9476 32.2372 98.4022 32.081C98.8567 31.9176 99.2509 31.6797 99.5847 31.3672C99.9185 31.0547 100.171 30.6676 100.341 30.206L103.942 30.6108C103.715 31.5625 103.281 32.3935 102.642 33.1037C102.01 33.8068 101.2 34.3537 100.213 34.7443C99.226 35.1278 98.0968 35.3196 96.8255 35.3196ZM117.794 28.1179V18.6364H121.651V35H117.911V32.0916H117.741C117.371 33.0078 116.764 33.7571 115.919 34.3395C115.081 34.9219 114.048 35.2131 112.819 35.2131C111.746 35.2131 110.798 34.9751 109.974 34.4993C109.158 34.0163 108.518 33.3168 108.057 32.4006C107.595 31.4773 107.364 30.3622 107.364 29.0554V18.6364H111.221V28.4588C111.221 29.4957 111.505 30.3196 112.073 30.9304C112.641 31.5412 113.387 31.8466 114.31 31.8466C114.879 31.8466 115.429 31.7081 115.962 31.4311C116.494 31.1541 116.931 30.7422 117.272 30.1953C117.62 29.6413 117.794 28.9489 117.794 28.1179ZM125.616 35V18.6364H129.302V21.4169H129.494C129.835 20.4794 130.4 19.7479 131.188 19.2223C131.976 18.6896 132.917 18.4233 134.011 18.4233C135.119 18.4233 136.053 18.6932 136.813 19.233C137.58 19.7656 138.12 20.4936 138.432 21.4169H138.603C138.965 20.5078 139.576 19.7834 140.435 19.2436C141.302 18.6967 142.328 18.4233 143.514 18.4233C145.02 18.4233 146.248 18.8991 147.2 19.8509C148.152 20.8026 148.628 22.1911 148.628 24.0163V35H144.76V24.6129C144.76 23.5973 144.491 22.8551 143.951 22.3864C143.411 21.9105 142.751 21.6726 141.969 21.6726C141.039 21.6726 140.311 21.9638 139.785 22.5462C139.267 23.1214 139.008 23.8707 139.008 24.794V35H135.226V24.4531C135.226 23.608 134.97 22.9332 134.459 22.429C133.954 21.9247 133.294 21.6726 132.477 21.6726C131.923 21.6726 131.419 21.8146 130.964 22.0987C130.51 22.3757 130.148 22.7699 129.878 23.2812C129.608 23.7855 129.473 24.375 129.473 25.0497V35H125.616ZM130.117 69.3196C128.519 69.3196 127.134 68.968 125.963 68.2649C124.791 67.5618 123.882 66.5781 123.235 65.3139C122.596 64.0497 122.276 62.5724 122.276 60.8821C122.276 59.1918 122.596 57.7109 123.235 56.4396C123.882 55.1683 124.791 54.1811 125.963 53.478C127.134 52.7749 128.519 52.4233 130.117 52.4233C131.715 52.4233 133.1 52.7749 134.272 53.478C135.444 54.1811 136.35 55.1683 136.989 56.4396C137.635 57.7109 137.958 59.1918 137.958 60.8821C137.958 62.5724 137.635 64.0497 136.989 65.3139C136.35 66.5781 135.444 67.5618 134.272 68.2649C133.1 68.968 131.715 69.3196 130.117 69.3196ZM130.139 66.2301C131.005 66.2301 131.73 65.9922 132.312 65.5163C132.894 65.0334 133.328 64.3871 133.612 63.5774C133.903 62.7678 134.048 61.8658 134.048 60.8714C134.048 59.87 133.903 58.9645 133.612 58.1548C133.328 57.3381 132.894 56.6882 132.312 56.2053C131.73 55.7223 131.005 55.4808 130.139 55.4808C129.251 55.4808 128.512 55.7223 127.923 56.2053C127.34 56.6882 126.904 57.3381 126.612 58.1548C126.328 58.9645 126.186 59.87 126.186 60.8714C126.186 61.8658 126.328 62.7678 126.612 63.5774C126.904 64.3871 127.34 65.0334 127.923 65.5163C128.512 65.9922 129.251 66.2301 130.139 66.2301ZM149.52 52.6364V55.6193H139.847V52.6364H149.52ZM142.265 69V51.0916C142.265 49.9908 142.492 49.0746 142.947 48.343C143.408 47.6115 144.026 47.0646 144.8 46.7024C145.575 46.3402 146.434 46.1591 147.379 46.1591C148.046 46.1591 148.639 46.2124 149.158 46.3189C149.676 46.4254 150.06 46.5213 150.308 46.6065L149.541 49.5895C149.378 49.5398 149.172 49.4901 148.923 49.4403C148.675 49.3835 148.398 49.3551 148.092 49.3551C147.375 49.3551 146.867 49.5291 146.569 49.8771C146.278 50.218 146.132 50.7081 146.132 51.3473V69H142.265Z" fill="#343434"/>
<path d="M170.739 10.8182H183.636L200.909 52.9773H201.591L218.864 10.8182H231.761V69H221.648V29.0284H221.108L205.028 68.8295H197.472L181.392 28.9432H180.852V69H170.739V10.8182ZM243.239 69V10.8182H281.08V19.6534H253.778V35.4489H279.119V44.2841H253.778V60.1648H281.307V69H243.239Z" fill="#343434"/>
</svg>
